<mxfile host="app.diagrams.net" agent="Mozilla/5.0 (Macintosh; Intel Mac OS X 10_15_7) AppleWebKit/537.36 (KHTML, like Gecko) Chrome/130.0.0.0 Safari/537.36" version="25.0.1">
  <diagram name="Page-1" id="OAd1CM3BeRx_v6z6rj3k">
    <mxGraphModel dx="1026" dy="684" grid="1" gridSize="10" guides="1" tooltips="1" connect="1" arrows="1" fold="1" page="1" pageScale="1" pageWidth="827" pageHeight="1169" math="0" shadow="0">
      <root>
        <mxCell id="0" />
        <mxCell id="1" parent="0" />
        <mxCell id="GQoaadz46SoARARe0tmr-1" value="" style="whiteSpace=wrap;html=1;aspect=fixed;fontFamily=Times New Roman;spacing=2;" vertex="1" parent="1">
          <mxGeometry width="860" height="860" as="geometry" />
        </mxCell>
        <mxCell id="GQoaadz46SoARARe0tmr-2" value="" style="shape=folder;fontStyle=1;spacingTop=10;tabWidth=40;tabHeight=14;tabPosition=left;html=1;whiteSpace=wrap;fillColor=#dae8fc;strokeColor=#6c8ebf;fontFamily=Times New Roman;spacing=2;" vertex="1" parent="1">
          <mxGeometry x="50" y="20" width="780" height="180" as="geometry" />
        </mxCell>
        <mxCell id="GQoaadz46SoARARe0tmr-3" value="" style="shape=folder;fontStyle=1;spacingTop=10;tabWidth=40;tabHeight=14;tabPosition=left;html=1;whiteSpace=wrap;fillColor=#dae8fc;strokeColor=#6c8ebf;fontFamily=Times New Roman;spacing=2;" vertex="1" parent="1">
          <mxGeometry x="50" y="230" width="780" height="180" as="geometry" />
        </mxCell>
        <mxCell id="GQoaadz46SoARARe0tmr-4" value="" style="shape=folder;fontStyle=1;spacingTop=10;tabWidth=40;tabHeight=14;tabPosition=left;html=1;whiteSpace=wrap;fillColor=#dae8fc;strokeColor=#6c8ebf;fontFamily=Times New Roman;spacing=2;" vertex="1" parent="1">
          <mxGeometry x="50" y="450" width="780" height="180" as="geometry" />
        </mxCell>
        <mxCell id="GQoaadz46SoARARe0tmr-6" value="«Annotation»&lt;br&gt;&lt;b&gt;Welcome Page&lt;/b&gt;" style="html=1;dropTarget=0;whiteSpace=wrap;fontFamily=Times New Roman;spacing=2;" vertex="1" parent="1">
          <mxGeometry x="60" y="90" width="130" height="70" as="geometry" />
        </mxCell>
        <mxCell id="GQoaadz46SoARARe0tmr-7" value="" style="shape=module;jettyWidth=8;jettyHeight=4;fontFamily=Times New Roman;spacing=2;" vertex="1" parent="GQoaadz46SoARARe0tmr-6">
          <mxGeometry x="1" width="20" height="20" relative="1" as="geometry">
            <mxPoint x="-27" y="7" as="offset" />
          </mxGeometry>
        </mxCell>
        <mxCell id="GQoaadz46SoARARe0tmr-10" value="«Annotation»&lt;br&gt;&lt;b&gt;Floor Plan Display&lt;/b&gt;" style="html=1;dropTarget=0;whiteSpace=wrap;fontFamily=Times New Roman;spacing=2;" vertex="1" parent="1">
          <mxGeometry x="680" y="90" width="130" height="70" as="geometry" />
        </mxCell>
        <mxCell id="GQoaadz46SoARARe0tmr-11" value="" style="shape=module;jettyWidth=8;jettyHeight=4;fontFamily=Times New Roman;spacing=2;" vertex="1" parent="GQoaadz46SoARARe0tmr-10">
          <mxGeometry x="1" width="20" height="20" relative="1" as="geometry">
            <mxPoint x="-27" y="7" as="offset" />
          </mxGeometry>
        </mxCell>
        <mxCell id="GQoaadz46SoARARe0tmr-12" value="«Annotation»&lt;br&gt;&lt;b&gt;Admin Interface&lt;/b&gt;" style="html=1;dropTarget=0;whiteSpace=wrap;fontFamily=Times New Roman;spacing=2;" vertex="1" parent="1">
          <mxGeometry x="220" y="90" width="130" height="70" as="geometry" />
        </mxCell>
        <mxCell id="GQoaadz46SoARARe0tmr-13" value="" style="shape=module;jettyWidth=8;jettyHeight=4;fontFamily=Times New Roman;spacing=2;" vertex="1" parent="GQoaadz46SoARARe0tmr-12">
          <mxGeometry x="1" width="20" height="20" relative="1" as="geometry">
            <mxPoint x="-27" y="7" as="offset" />
          </mxGeometry>
        </mxCell>
        <mxCell id="GQoaadz46SoARARe0tmr-14" value="«Annotation»&lt;br&gt;&lt;b&gt;Visitor interface&lt;/b&gt;" style="html=1;dropTarget=0;whiteSpace=wrap;fontFamily=Times New Roman;spacing=2;" vertex="1" parent="1">
          <mxGeometry x="375" y="90" width="130" height="70" as="geometry" />
        </mxCell>
        <mxCell id="GQoaadz46SoARARe0tmr-15" value="" style="shape=module;jettyWidth=8;jettyHeight=4;fontFamily=Times New Roman;spacing=2;" vertex="1" parent="GQoaadz46SoARARe0tmr-14">
          <mxGeometry x="1" width="20" height="20" relative="1" as="geometry">
            <mxPoint x="-27" y="7" as="offset" />
          </mxGeometry>
        </mxCell>
        <mxCell id="GQoaadz46SoARARe0tmr-16" value="«Annotation»&lt;br&gt;&lt;b&gt;Interactive Map&lt;/b&gt;" style="html=1;dropTarget=0;whiteSpace=wrap;fontFamily=Times New Roman;spacing=2;" vertex="1" parent="1">
          <mxGeometry x="530" y="90" width="130" height="70" as="geometry" />
        </mxCell>
        <mxCell id="GQoaadz46SoARARe0tmr-17" value="" style="shape=module;jettyWidth=8;jettyHeight=4;fontFamily=Times New Roman;spacing=2;" vertex="1" parent="GQoaadz46SoARARe0tmr-16">
          <mxGeometry x="1" width="20" height="20" relative="1" as="geometry">
            <mxPoint x="-27" y="7" as="offset" />
          </mxGeometry>
        </mxCell>
        <mxCell id="GQoaadz46SoARARe0tmr-18" value="User Interface" style="text;align=center;fontStyle=1;verticalAlign=middle;spacingLeft=3;spacingRight=3;strokeColor=none;rotatable=0;points=[[0,0.5],[1,0.5]];portConstraint=eastwest;html=1;fontFamily=Times New Roman;spacing=2;" vertex="1" parent="1">
          <mxGeometry x="360" y="50" width="80" height="26" as="geometry" />
        </mxCell>
        <mxCell id="GQoaadz46SoARARe0tmr-19" style="edgeStyle=orthogonalEdgeStyle;rounded=0;orthogonalLoop=1;jettySize=auto;html=1;exitX=0;exitY=1;exitDx=4;exitDy=0;exitPerimeter=0;entryX=1;entryY=0;entryDx=0;entryDy=0;fontFamily=Times New Roman;spacing=2;" edge="1" parent="1" source="GQoaadz46SoARARe0tmr-15" target="GQoaadz46SoARARe0tmr-14">
          <mxGeometry relative="1" as="geometry" />
        </mxCell>
        <mxCell id="GQoaadz46SoARARe0tmr-20" value="«Annotation»&lt;br&gt;&lt;b&gt;User Authentication&lt;/b&gt;" style="html=1;dropTarget=0;whiteSpace=wrap;fontFamily=Times New Roman;spacing=2;" vertex="1" parent="1">
          <mxGeometry x="80" y="310" width="130" height="70" as="geometry" />
        </mxCell>
        <mxCell id="GQoaadz46SoARARe0tmr-21" value="" style="shape=module;jettyWidth=8;jettyHeight=4;fontFamily=Times New Roman;spacing=2;" vertex="1" parent="GQoaadz46SoARARe0tmr-20">
          <mxGeometry x="1" width="20" height="20" relative="1" as="geometry">
            <mxPoint x="-27" y="7" as="offset" />
          </mxGeometry>
        </mxCell>
        <mxCell id="GQoaadz46SoARARe0tmr-22" value="«Annotation»&lt;br&gt;&lt;b&gt;Visitor Navigation Logic&lt;/b&gt;" style="html=1;dropTarget=0;whiteSpace=wrap;fontFamily=Times New Roman;spacing=2;" vertex="1" parent="1">
          <mxGeometry x="270" y="310" width="130" height="70" as="geometry" />
        </mxCell>
        <mxCell id="GQoaadz46SoARARe0tmr-23" value="" style="shape=module;jettyWidth=8;jettyHeight=4;fontFamily=Times New Roman;spacing=2;" vertex="1" parent="GQoaadz46SoARARe0tmr-22">
          <mxGeometry x="1" width="20" height="20" relative="1" as="geometry">
            <mxPoint x="-27" y="7" as="offset" />
          </mxGeometry>
        </mxCell>
        <mxCell id="GQoaadz46SoARARe0tmr-24" value="Application Logic" style="text;align=center;fontStyle=1;verticalAlign=middle;spacingLeft=3;spacingRight=3;strokeColor=none;rotatable=0;points=[[0,0.5],[1,0.5]];portConstraint=eastwest;html=1;fontFamily=Times New Roman;spacing=2;" vertex="1" parent="1">
          <mxGeometry x="360" y="259" width="80" height="26" as="geometry" />
        </mxCell>
        <mxCell id="GQoaadz46SoARARe0tmr-25" value="«Annotation»&lt;br&gt;&lt;b&gt;Admin Room Management Logic&lt;/b&gt;" style="html=1;dropTarget=0;whiteSpace=wrap;fontFamily=Times New Roman;spacing=2;" vertex="1" parent="1">
          <mxGeometry x="465" y="310" width="130" height="70" as="geometry" />
        </mxCell>
        <mxCell id="GQoaadz46SoARARe0tmr-26" value="" style="shape=module;jettyWidth=8;jettyHeight=4;fontFamily=Times New Roman;spacing=2;" vertex="1" parent="GQoaadz46SoARARe0tmr-25">
          <mxGeometry x="1" width="20" height="20" relative="1" as="geometry">
            <mxPoint x="-27" y="7" as="offset" />
          </mxGeometry>
        </mxCell>
        <mxCell id="GQoaadz46SoARARe0tmr-27" value="«Annotation»&lt;br&gt;&lt;b&gt;Map and Floor Plan Generation&lt;/b&gt;" style="html=1;dropTarget=0;whiteSpace=wrap;fontFamily=Times New Roman;spacing=2;" vertex="1" parent="1">
          <mxGeometry x="660" y="310" width="130" height="70" as="geometry" />
        </mxCell>
        <mxCell id="GQoaadz46SoARARe0tmr-28" value="" style="shape=module;jettyWidth=8;jettyHeight=4;fontFamily=Times New Roman;spacing=2;" vertex="1" parent="GQoaadz46SoARARe0tmr-27">
          <mxGeometry x="1" width="20" height="20" relative="1" as="geometry">
            <mxPoint x="-27" y="7" as="offset" />
          </mxGeometry>
        </mxCell>
        <mxCell id="GQoaadz46SoARARe0tmr-30" value="Database" style="text;align=center;fontStyle=1;verticalAlign=middle;spacingLeft=3;spacingRight=3;strokeColor=none;rotatable=0;points=[[0,0.5],[1,0.5]];portConstraint=eastwest;html=1;fontFamily=Times New Roman;spacing=2;" vertex="1" parent="1">
          <mxGeometry x="360" y="490" width="80" height="26" as="geometry" />
        </mxCell>
        <mxCell id="GQoaadz46SoARARe0tmr-31" value="«Annotation»&lt;br&gt;&lt;b&gt;Room Availability Status&lt;/b&gt;" style="html=1;dropTarget=0;whiteSpace=wrap;fontFamily=Times New Roman;spacing=2;" vertex="1" parent="1">
          <mxGeometry x="620" y="540" width="130" height="70" as="geometry" />
        </mxCell>
        <mxCell id="GQoaadz46SoARARe0tmr-32" value="" style="shape=module;jettyWidth=8;jettyHeight=4;fontFamily=Times New Roman;spacing=2;" vertex="1" parent="GQoaadz46SoARARe0tmr-31">
          <mxGeometry x="1" width="20" height="20" relative="1" as="geometry">
            <mxPoint x="-27" y="7" as="offset" />
          </mxGeometry>
        </mxCell>
        <mxCell id="GQoaadz46SoARARe0tmr-33" value="«Annotation»&lt;br&gt;&lt;b&gt;Building and Room Data&lt;/b&gt;" style="html=1;dropTarget=0;whiteSpace=wrap;fontFamily=Times New Roman;spacing=2;" vertex="1" parent="1">
          <mxGeometry x="350" y="540" width="130" height="70" as="geometry" />
        </mxCell>
        <mxCell id="GQoaadz46SoARARe0tmr-34" value="" style="shape=module;jettyWidth=8;jettyHeight=4;fontFamily=Times New Roman;spacing=2;" vertex="1" parent="GQoaadz46SoARARe0tmr-33">
          <mxGeometry x="1" width="20" height="20" relative="1" as="geometry">
            <mxPoint x="-27" y="7" as="offset" />
          </mxGeometry>
        </mxCell>
        <mxCell id="GQoaadz46SoARARe0tmr-35" value="«Annotation»&lt;br&gt;&lt;b&gt;User Data&lt;/b&gt;" style="html=1;dropTarget=0;whiteSpace=wrap;fontFamily=Times New Roman;spacing=2;" vertex="1" parent="1">
          <mxGeometry x="80" y="540" width="130" height="70" as="geometry" />
        </mxCell>
        <mxCell id="GQoaadz46SoARARe0tmr-36" value="" style="shape=module;jettyWidth=8;jettyHeight=4;fontFamily=Times New Roman;spacing=2;" vertex="1" parent="GQoaadz46SoARARe0tmr-35">
          <mxGeometry x="1" width="20" height="20" relative="1" as="geometry">
            <mxPoint x="-27" y="7" as="offset" />
          </mxGeometry>
        </mxCell>
        <mxCell id="GQoaadz46SoARARe0tmr-39" value="Figure High level system overview" style="text;align=center;fontStyle=1;verticalAlign=middle;spacingLeft=3;spacingRight=3;strokeColor=none;rotatable=0;points=[[0,0.5],[1,0.5]];portConstraint=eastwest;html=1;fontFamily=Times New Roman;spacing=2;" vertex="1" parent="1">
          <mxGeometry x="190" y="680" width="380" height="26" as="geometry" />
        </mxCell>
      </root>
    </mxGraphModel>
  </diagram>
</mxfile>
